<svg width="140" height="35" viewBox="0 0 140 35" fill="none" xmlns="http://www.w3.org/2000/svg">
<path d="M26.3121 28.5649H24.3696C22.6037 28.5649 21.6266 27.9337 21.6207 25.96V16.5274H26.3298V11.1226H21.6207V4.38672L15.8934 4.41541V7.57681C15.8934 9.5907 14.7691 11.1513 12.3086 11.1571H7.08157H1.88985H0.777344L0.842093 34.3254H7.13455L7.08746 16.5389H15.3283L15.3577 27.0272C15.3577 31.3763 18.2126 33.9811 22.7568 33.9696C23.9609 34.0003 25.1598 33.8055 26.2886 33.3959L26.3121 28.5649Z" fill="url(#paint0_linear)"/>
<path d="M1.8024e-05 3.81295C0.021612 4.80376 0.441425 5.74669 1.1691 6.43881C1.89678 7.13094 2.87415 7.51692 3.89086 7.51369C4.40949 7.53226 4.92662 7.44858 5.41127 7.26766C5.89592 7.08675 6.33811 6.81233 6.71134 6.46084C7.08457 6.10935 7.38116 5.68804 7.58333 5.22214C7.78551 4.75624 7.8891 4.25536 7.88791 3.7495C7.88672 3.24364 7.78077 2.74322 7.57641 2.27823C7.37205 1.81324 7.07348 1.39326 6.6986 1.04344C6.32372 0.693624 5.88024 0.421179 5.39475 0.242433C4.90926 0.0636867 4.39174 -0.0176814 3.87321 0.00320484C2.84177 0.00927508 1.85488 0.413703 1.12885 1.12784C0.402819 1.84198 -0.00311695 2.80757 1.8024e-05 3.81295V3.81295Z" fill="url(#paint1_linear)"/>
<path d="M32.5693 33.9978V11.977H38.3968V14.6621C39.6388 12.5163 42.5172 11.3516 45.0071 11.3516C48.0856 11.3516 50.5637 12.6483 51.7116 15.0236C53.4775 12.3327 55.8908 11.3516 58.8752 11.3516C63.0545 11.3516 67.0513 13.813 67.0513 19.7227V33.9978H61.1238V20.9276C61.1238 18.558 59.9465 16.7678 57.1329 16.7678C54.5135 16.7678 52.9536 18.7358 52.9536 21.1054V33.9978H46.8907V20.9276C46.8907 18.558 45.6546 16.7678 42.8998 16.7678C40.2333 16.7678 38.6734 18.6899 38.6734 21.1054V33.9978H32.5693Z" fill="white"/>
<path d="M71.8657 33.9974V11.9766H77.9757V33.9974H71.8657Z" fill="white"/>
<path d="M104.653 30.0177C104.653 31.4922 104.741 33.1045 104.835 33.9996H99.0018C98.8535 33.1561 98.7767 32.3021 98.7722 31.4463C97.7657 33.1676 95.4641 34.5332 92.4386 34.5332C86.0107 34.5332 81.4194 29.6103 81.4194 22.9433C81.4194 16.5 85.8695 11.4681 92.2502 11.4681C96.1528 11.4681 97.9894 13.0345 98.6369 14.1935V1.59375H104.653V30.0177ZM93.1685 29.2087C96.2941 29.2087 98.7252 26.9137 98.7252 22.8974C98.7252 18.8811 96.2941 16.7696 93.1685 16.7696C90.0429 16.7696 87.5706 19.0073 87.5706 22.9433C87.5706 26.8792 89.9546 29.2087 93.1685 29.2087Z" fill="white"/>
<path d="M112.911 1.06055C113.654 1.05946 114.381 1.27289 115.001 1.67394C115.62 2.07499 116.104 2.64573 116.391 3.31427C116.678 3.98281 116.756 4.71925 116.615 5.43081C116.473 6.14237 116.119 6.79724 115.597 7.31292C115.074 7.8286 114.407 8.18203 113.679 8.32868C112.95 8.47534 112.194 8.40866 111.504 8.13705C110.815 7.86545 110.224 7.40105 109.804 6.80237C109.385 6.20369 109.157 5.4975 109.149 4.77276C109.143 4.28745 109.236 3.80575 109.422 3.35562C109.608 2.9055 109.884 2.49589 110.234 2.15057C110.584 1.80524 111.001 1.53107 111.46 1.34396C111.92 1.15684 112.413 1.06051 112.911 1.06055ZM109.885 34V11.9792H115.989V34H109.885Z" fill="white"/>
<path d="M126.503 21.3281L132.059 20.5248C133.342 20.347 133.76 19.7216 133.76 18.9585C133.76 17.3921 132.518 16.0897 129.946 16.0897C127.374 16.0897 125.826 17.7421 125.631 19.6699L120.21 18.5511C120.581 15.1086 123.842 11.2988 129.899 11.2988C137.063 11.2988 139.729 15.2348 139.729 19.6699V30.5025C139.736 31.6719 139.826 32.8395 140 33.9967H134.402C134.244 33.1255 134.167 32.2421 134.172 31.3574C133.025 33.0787 130.864 34.6221 127.515 34.6221C122.694 34.6221 119.757 31.4434 119.757 28.0009C119.757 24.0592 122.741 21.8674 126.503 21.3281ZM133.76 25.092V24.0994L128.663 24.8625C127.103 25.0862 125.861 25.9354 125.861 27.6337C125.861 28.9304 126.826 30.1869 128.804 30.1869C131.371 30.1927 133.76 28.982 133.76 25.092V25.092Z" fill="white"/>
<path d="M80.9896 0.966797L72.1602 8.14451V0.966797H80.9896Z" fill="white"/>
<defs>
<linearGradient id="paint0_linear" x1="13.5536" y1="4.38672" x2="13.5536" y2="34.3254" gradientUnits="userSpaceOnUse">
<stop stop-color="#FB5926"/>
<stop offset="1" stop-color="#F5821E"/>
</linearGradient>
<linearGradient id="paint1_linear" x1="0.31072" y1="1.45917" x2="6.07193" y2="8.72677" gradientUnits="userSpaceOnUse">
<stop offset="0.0364583" stop-color="#FF443B"/>
<stop offset="0.5" stop-color="#F78616"/>
<stop offset="0.973958" stop-color="#F89C1C"/>
</linearGradient>
</defs>
</svg>
